<svg width="24" height="24" viewBox="0 0 24 24" fill="none" xmlns="http://www.w3.org/2000/svg" data-reactroot="">
<path stroke-linejoin="round" stroke-linecap="round" stroke-miterlimit="10" stroke-width="1" stroke="#afddd0" fill="none" d="M2 3V16C2 16.55 2.45 17 3 17H6V22L12 17H21C21.55 17 22 16.55 22 16V3C22 2.45 21.55 2 21 2H3C2.45 2 2 2.45 2 3Z"></path>
<path stroke-linecap="round" stroke-width="1" stroke="#afddd0" fill="none" d="M14.5 5.49993C13.0598 5.4999 12 6.83326 12 6.83326C12 6.83326 11.0404 5.49993 9.49999 5.49993C8.04957 5.49993 7.00005 6.45234 7 7.78564C7.00005 9.11895 7.50005 9.94437 8.99999 11.2777C10 12.1666 12 13.4999 12 13.4999C12 13.4999 14 12.1666 15 11.2777C16.5 9.94437 17 9.11896 17 7.78564C17 6.45233 15.9504 5.49996 14.5 5.49993Z"></path>
</svg>
