<svg width="24" height="24" viewBox="0 0 24 24" fill="none" xmlns="http://www.w3.org/2000/svg" data-reactroot="">
<path stroke-linejoin="round" stroke-linecap="round" stroke-miterlimit="10" stroke-width="1" stroke="#ff5553" fill="none" d="M19 14H5V21H19V14Z"></path>
<path stroke-linejoin="round" stroke-linecap="round" stroke-miterlimit="10" stroke-width="1" stroke="#ff5553" d="M2 14V21"></path>
<path stroke-linejoin="round" stroke-linecap="round" stroke-miterlimit="10" stroke-width="1" stroke="#ff5553" d="M22 14V21"></path>
<path stroke-linejoin="round" stroke-linecap="round" stroke-miterlimit="10" stroke-width="1" stroke="#ff5553" fill="none" d="M17.89 7.23L20 5.12L17.88 3L15.77 5.11C16.63 5.65 17.35 6.37 17.89 7.23Z"></path>
<path stroke-linejoin="round" stroke-linecap="round" stroke-miterlimit="10" stroke-width="1" stroke="#ff5553" fill="none" d="M8.23 5.11L6.12 3L4 5.12L6.11 7.23C6.65 6.37 7.37 5.65 8.23 5.11Z"></path>
<path stroke-linejoin="round" stroke-linecap="round" stroke-miterlimit="10" stroke-width="1" stroke="#ff5553" fill="none" d="M12 4C8.13 4 5 7.13 5 11H19C19 7.13 15.87 4 12 4Z"></path>
<path stroke-linejoin="round" stroke-linecap="round" stroke-miterlimit="10" stroke-width="1" stroke="#ff5553" d="M14.49 8H14.51"></path>
<path stroke-linejoin="round" stroke-linecap="round" stroke-miterlimit="10" stroke-width="1" stroke="#ff5553" d="M9.48999 8H9.50999"></path>
</svg>
