<svg width="24" height="24" viewBox="0 0 24 24" fill="none" xmlns="http://www.w3.org/2000/svg" data-reactroot="">
<path stroke-linejoin="round" stroke-linecap="round" stroke-miterlimit="10" stroke-width="1" stroke="#ff5553" fill="none" d="M12 22C17.5228 22 22 17.5228 22 12C22 6.47715 17.5228 2 12 2C6.47715 2 2 6.47715 2 12C2 17.5228 6.47715 22 12 22Z"></path>
<path stroke-linejoin="round" stroke-linecap="round" stroke-miterlimit="10" stroke-width="1" stroke="#ff5553" fill="none" d="M12 22C14.2091 22 16 17.5228 16 12C16 6.47715 14.2091 2 12 2C9.79086 2 8 6.47715 8 12C8 17.5228 9.79086 22 12 22Z"></path>
<path stroke-linejoin="round" stroke-linecap="round" stroke-miterlimit="10" stroke-width="1" stroke="#ff5553" d="M2.46 15C2.16 14.05 2 13.05 2 12C2 10.95 2.16 9.95 2.46 9H21.54C21.84 9.95 22 10.95 22 12C22 13.05 21.84 14.05 21.54 15H2.46Z"></path>
</svg>
