<svg width="24" height="24" viewBox="0 0 24 24" fill="none" xmlns="http://www.w3.org/2000/svg" data-reactroot="">
<path fill="#000000" d="M21 8C21 7.65342 20.8205 7.33156 20.5257 7.14935C20.2309 6.96714 19.8628 6.95058 19.5528 7.10557L11.5528 11.1056C11.214 11.275 11 11.6212 11 12V21C11 21.3466 11.1795 21.6684 11.4743 21.8507C11.7691 22.0329 12.1372 22.0494 12.4472 21.8944L20.4472 17.8944C20.786 17.725 21 17.3788 21 17V8Z" clip-rule="evenodd" fill-rule="evenodd" undefined="1"></path>
<path fill="#000000" d="M4.44721 7.10557C4.13723 6.95058 3.76909 6.96714 3.47427 7.14935C3.17945 7.33156 3 7.65342 3 8V17C3 17.3788 3.214 17.725 3.55279 17.8944L11.5528 21.8944C11.8628 22.0494 12.2309 22.0329 12.5257 21.8507C12.8205 21.6684 13 21.3466 13 21V12C13 11.6212 12.786 11.275 12.4472 11.1056L4.44721 7.10557Z" clip-rule="evenodd" fill-rule="evenodd" undefined="1"></path>
<path fill="#000000" d="M11.5528 3.10557C11.8343 2.96481 12.1657 2.96481 12.4472 3.10557L20.4472 7.10557C20.786 7.27496 21 7.62123 21 8C21 8.37877 20.786 8.72504 20.4472 8.89443L12.4472 12.8944C12.1657 13.0352 11.8343 13.0352 11.5528 12.8944L3.55279 8.89443C3.214 8.72504 3 8.37877 3 8C3 7.62123 3.214 7.27496 3.55279 7.10557L11.5528 3.10557ZM6.23607 8L12 10.882L17.7639 8L12 5.11803L6.23607 8Z" clip-rule="evenodd" fill-rule="evenodd" undefined="1"></path>
</svg>
