<svg width="24" height="24" viewBox="0 0 24 24" fill="none" xmlns="http://www.w3.org/2000/svg">
<path fill-rule="evenodd" clip-rule="evenodd" d="M21 8C21 7.65342 20.8205 7.33156 20.5257 7.14935C20.2309 6.96714 19.8628 6.95058 19.5528 7.10557L11.5528 11.1056C11.214 11.275 11 11.6212 11 12V21C11 21.3466 11.1795 21.6684 11.4743 21.8507C11.7691 22.0329 12.1372 22.0494 12.4472 21.8944L20.4472 17.8944C20.786 17.725 21 17.3788 21 17V8Z" fill="black"/>
<path fill-rule="evenodd" clip-rule="evenodd" d="M4.44721 7.10557C4.13723 6.95058 3.76909 6.96714 3.47427 7.14935C3.17945 7.33156 3 7.65342 3 8V17C3 17.3788 3.214 17.725 3.55279 17.8944L11.5528 21.8944C11.8628 22.0494 12.2309 22.0329 12.5257 21.8507C12.8205 21.6684 13 21.3466 13 21V12C13 11.6212 12.786 11.275 12.4472 11.1056L4.44721 7.10557Z" fill="black"/>
<path fill-rule="evenodd" clip-rule="evenodd" d="M11.5528 3.10557C11.8343 2.96481 12.1657 2.96481 12.4472 3.10557L20.4472 7.10557C20.786 7.27496 21 7.62123 21 8C21 8.37877 20.786 8.72504 20.4472 8.89443L12.4472 12.8944C12.1657 13.0352 11.8343 13.0352 11.5528 12.8944L3.55279 8.89443C3.214 8.72504 3 8.37877 3 8C3 7.62123 3.214 7.27496 3.55279 7.10557L11.5528 3.10557ZM6.23607 8L12 10.882L17.7639 8L12 5.11803L6.23607 8Z" fill="black"/>
<path d="M7.17332 16.9895C8.67379 17.7052 9.59116 17.1105 9.60514 15.4055C9.61908 13.7058 8.71854 12.2493 7.23251 11.5405L5.47235 10.701L5.42759 16.1569L7.17332 16.9895ZM6.47689 15.6651L6.50543 12.1859L7.16909 12.5025C8.09245 12.9429 8.5763 13.6979 8.56636 14.91C8.55637 16.1275 8.06391 16.4221 7.13815 15.9805L6.47689 15.6651Z" fill="url(#paint0_linear)"/>
<path d="M7.17332 16.9895C8.67379 17.7052 9.59116 17.1105 9.60514 15.4055C9.61908 13.7058 8.71854 12.2493 7.23251 11.5405L5.47235 10.701L5.42759 16.1569L7.17332 16.9895ZM6.47689 15.6651L6.50543 12.1859L7.16909 12.5025C8.09245 12.9429 8.5763 13.6979 8.56636 14.91C8.55637 16.1275 8.06391 16.4221 7.13815 15.9805L6.47689 15.6651Z" fill="url(#paint1_linear)"/>
<path d="M14.6838 18.0226L15.725 17.526V15.9755L16.2372 15.0385L17.5862 16.6383L18.8317 16.0442L16.9826 13.913L18.8101 10.5984L17.5621 11.1936L15.7899 14.4446L15.725 14.4756V12.0699L14.6838 12.5665V18.0226Z" fill="url(#paint2_linear)"/>
<path d="M14.6838 18.0226L15.725 17.526V15.9755L16.2372 15.0385L17.5862 16.6383L18.8317 16.0442L16.9826 13.913L18.8101 10.5984L17.5621 11.1936L15.7899 14.4446L15.725 14.4756V12.0699L14.6838 12.5665V18.0226Z" fill="url(#paint3_linear)"/>
<defs>
<linearGradient id="paint0_linear" x1="5.27553" y1="12.2501" x2="10.6928" y2="16.3171" gradientUnits="userSpaceOnUse">
<stop stop-color="#FFE246"/>
<stop offset="1" stop-color="#F1C134"/>
</linearGradient>
<linearGradient id="paint1_linear" x1="6.52124" y1="9.65136" x2="3.72175" y2="15.5206" gradientUnits="userSpaceOnUse">
<stop stop-color="white" stop-opacity="0"/>
<stop offset="1"/>
</linearGradient>
<linearGradient id="paint2_linear" x1="14.2425" y1="14.4137" x2="18.4065" y2="16.2194" gradientUnits="userSpaceOnUse">
<stop stop-color="#FFE246"/>
<stop offset="1" stop-color="#F1C134"/>
</linearGradient>
<linearGradient id="paint3_linear" x1="15.4622" y1="10.6514" x2="18.2508" y2="16.4979" gradientUnits="userSpaceOnUse">
<stop/>
<stop offset="1" stop-color="white" stop-opacity="0"/>
</linearGradient>
</defs>
</svg>
