<svg width="6" height="6" viewBox="0 0 6 6" fill="none" xmlns="http://www.w3.org/2000/svg">
<g clip-path="url(#clip0)">
<path fill-rule="evenodd" clip-rule="evenodd" d="M5.25 2C5.25 1.91336 5.20512 1.83289 5.13142 1.78734C5.05772 1.74179 4.9657 1.73765 4.8882 1.77639L2.8882 2.7764C2.8035 2.81875 2.75 2.9053 2.75 3V5.25C2.75 5.33665 2.79488 5.4171 2.86858 5.46268C2.94228 5.50823 3.0343 5.51235 3.1118 5.4736L5.1118 4.4736C5.1965 4.43125 5.25 4.3447 5.25 4.25V2Z" fill="black"/>
<path fill-rule="evenodd" clip-rule="evenodd" d="M1.1118 1.77639C1.03431 1.73765 0.942273 1.74179 0.868568 1.78734C0.794863 1.83289 0.75 1.91336 0.75 2V4.25C0.75 4.3447 0.8035 4.43125 0.888197 4.4736L2.8882 5.4736C2.9657 5.51235 3.05772 5.50823 3.13142 5.46268C3.20512 5.4171 3.25 5.33665 3.25 5.25V3C3.25 2.9053 3.1965 2.81875 3.1118 2.7764L1.1118 1.77639Z" fill="black"/>
<path fill-rule="evenodd" clip-rule="evenodd" d="M2.8882 0.776393C2.95858 0.741202 3.04142 0.741202 3.1118 0.776393L5.1118 1.77639C5.1965 1.81874 5.25 1.90531 5.25 2C5.25 2.09469 5.1965 2.18126 5.1118 2.22361L3.1118 3.2236C3.04142 3.2588 2.95858 3.2588 2.8882 3.2236L0.888197 2.22361C0.8035 2.18126 0.75 2.09469 0.75 2C0.75 1.90531 0.8035 1.81874 0.888197 1.77639L2.8882 0.776393ZM1.55902 2L3 2.7205L4.44098 2L3 1.27951L1.55902 2Z" fill="black"/>
</g>
<defs>
<clipPath id="clip0">
<rect width="6" height="6" fill="white"/>
</clipPath>
</defs>
</svg>
