<svg width="667" height="667" viewBox="0 0 667 667" fill="none" xmlns="http://www.w3.org/2000/svg">
<path d="M333.5 333.5L111.167 222.333V472.458L333.5 583.625V333.5Z" stroke="black" stroke-width="27.7917" stroke-linecap="round" stroke-linejoin="round"/>
<path d="M333.5 583.625L555.833 472.458V222.333L333.5 333.5V583.625Z" stroke="black" stroke-width="27.7917" stroke-linecap="round" stroke-linejoin="round"/>
<path d="M333.5 111.167L111.167 222.333L333.5 333.5L555.833 222.333L333.5 111.167Z" stroke="black" stroke-width="27.7917" stroke-linecap="round" stroke-linejoin="round"/>
<path d="M182.943 404.319C208.826 416.665 224.651 406.405 224.892 376.994C225.133 347.675 209.598 322.55 183.964 310.324L153.601 295.841L152.829 389.956L182.943 404.319ZM170.93 381.474L171.422 321.457L182.87 326.918C198.798 334.515 207.145 347.538 206.973 368.447C206.801 389.449 198.306 394.531 182.336 386.914L170.93 381.474Z" fill="black"/>
<path d="M380.296 506.89L398.256 498.323V471.577L407.091 455.414L430.361 483.01L451.847 472.762L419.95 436L451.474 378.822L429.946 389.09L399.376 445.17L398.256 445.704V404.206L380.296 412.772V506.89Z" fill="black"/>
</svg>
